<svg width="23" height="24" viewBox="0 0 23 24" fill="none" xmlns="http://www.w3.org/2000/svg">
<path d="M21.0181 8.16438L20.7582 8.31882V1.92706C20.7582 1.28879 20.2389 0.769478 19.6006 0.769478H16.0137C15.3754 0.769478 14.8561 1.28879 14.8561 1.92706V3.70422H13.6171C13.257 3.70422 12.965 3.99623 12.965 4.35641C12.965 4.71659 13.257 5.00859 13.6171 5.00859H17.3997C17.7599 5.00859 18.0519 4.71659 18.0519 4.35641C18.0519 3.99623 17.7599 3.70422 17.3997 3.70422H16.1604V2.0738H19.4539V9.09379L17.5818 10.2061C17.5152 10.2458 17.4386 10.2668 17.3604 10.2668H11.1314L8.35109 7.6895C7.97309 7.27758 7.43816 7.04201 6.87781 7.04201H1.48659C0.887231 7.04201 0.399658 7.52963 0.399658 8.12894V9.91154C0.399658 10.4797 0.83797 10.9472 1.3942 10.9943L3.77245 18.7173C3.96254 19.3355 4.64994 19.9984 5.59574 19.9984H6.18471V21.9437C6.18471 22.5431 6.67233 23.0307 7.27164 23.0307H9.33024C9.81242 23.0307 10.2421 22.707 10.3751 22.2433L11.0189 19.9984H14.9688L15.6126 22.2433C15.7454 22.7069 16.175 23.0307 16.6573 23.0307H18.7159C19.3153 23.0307 19.8028 22.5431 19.8028 21.9438V19.9985H20.123C21.1924 19.9985 22.0625 19.1282 22.0625 18.0585V12.02L22.1346 11.9765C22.4589 11.7809 22.6603 11.4242 22.6603 11.0455V9.09857C22.6603 8.25673 21.7411 7.7352 21.0181 8.16438ZM9.16637 21.7264H7.48895V19.9986H9.66185L9.16637 21.7264ZM18.4985 21.7264H16.8211L16.3257 19.9986H18.4985V21.7264ZM1.70394 8.34638H6.87781C7.07681 8.34638 7.26651 8.43169 7.39825 8.58052C7.43121 8.61774 7.23742 8.43573 10.4323 11.3973C10.5528 11.509 10.7112 11.5711 10.8756 11.5711H17.3603C17.6735 11.5711 17.9809 11.4866 18.2487 11.327L21.356 9.48084V10.9229L18.8059 12.4591C18.1119 12.8772 18.0817 12.9189 17.9221 12.9189H10.2691C10.0001 12.9189 9.76777 12.6982 9.70377 12.6389L6.71467 9.8681C6.59411 9.75632 6.43576 9.69423 6.27132 9.69423C5.53387 9.69423 2.16525 9.69423 1.70398 9.69423V8.34638H1.70394ZM20.7582 12.8058V18.0585C20.7582 18.409 20.4732 18.6942 20.123 18.6942H5.59566C5.3423 18.6942 5.10973 18.5393 5.01078 18.3069L2.76026 10.9985H6.01553L8.7958 13.5758C9.16715 13.9805 9.70124 14.2233 10.2691 14.2233H17.9221C18.2389 14.2233 18.5494 14.1368 18.8195 13.9736L20.7582 12.8058Z" fill="#305F82"/>
</svg>
