<svg width="20" height="21" viewBox="0 0 20 21" fill="none" xmlns="http://www.w3.org/2000/svg">
    <path
        d="M17.4984 6.63944L19.8072 2.64022C20.355 1.6919 19.6701 0.508774 18.5764 0.508774H13.9589C13.0824 0.508774 12.4648 1.271 12.5423 2.06487H7.45761C7.53504 1.27159 6.9182 0.508774 6.04097 0.508774H1.42343C0.327767 0.508813 -0.354187 1.69354 0.192688 2.64026L2.50144 6.63948C2.65183 6.90003 2.8721 7.09921 3.13183 7.21913V11.6398C1.85968 12.5573 1.10077 14.0388 1.10077 15.605C1.10077 18.2993 3.29277 20.4913 5.98703 20.4913H13.9984C16.6926 20.4913 18.8846 18.2993 18.8846 15.605C18.8846 14.0388 18.1257 12.5573 16.8536 11.6398L16.8532 7.22616C17.1121 7.11182 17.3437 6.90843 17.4984 6.63944ZM1.20742 2.05475C1.11081 1.88792 1.23058 1.68057 1.42339 1.68057H6.04093C6.23386 1.68057 6.35297 1.88811 6.25691 2.05436C6.08636 2.3503 4.72593 4.70639 3.94816 6.05358C3.85132 6.22018 3.61253 6.22042 3.51617 6.05358C3.04757 5.24167 3.48089 5.99221 1.20742 2.05475ZM17.7129 15.605C17.7129 17.6532 16.0466 19.3195 13.9984 19.3195H5.98703C3.93878 19.3195 2.27253 17.6532 2.27253 15.605C2.27253 14.4125 2.85179 13.2841 3.82199 12.5865C4.12351 12.3701 4.30359 12.0201 4.30359 11.6507V7.23198C4.58605 7.11026 4.81375 6.89788 4.96289 6.63944L6.92675 3.23745C6.9855 3.23643 12.998 3.23569 13.073 3.23784L15.0369 6.63944C15.19 6.90468 15.4154 7.1062 15.6813 7.22573L15.6817 11.6507C15.6817 12.0202 15.8618 12.3701 16.1633 12.5869C17.1336 13.2841 17.7129 14.4125 17.7129 15.605ZM16.4837 6.05358C16.3874 6.22026 16.1487 6.22042 16.0517 6.05358C14.5858 3.51526 13.7429 2.05475 13.7429 2.05475C13.6468 1.88768 13.7663 1.68057 13.9589 1.68057H18.5764C18.769 1.68057 18.8892 1.88792 18.7924 2.05436C18.7531 2.12252 16.9336 5.27421 16.4837 6.05358Z"
        fill="#305F82" />
    <path
        d="M14.538 13.9936C14.2145 13.9936 13.9521 14.2559 13.9521 14.5795V15.2952C13.9521 16.0049 13.3747 16.5823 12.665 16.5823H11.8654C11.291 16.5823 10.8033 16.204 10.6383 15.6835C10.7773 15.5886 10.8956 15.4616 10.9843 15.3081L12.5314 12.6287C12.9726 11.8645 12.4212 10.9101 11.5393 10.9101H8.44549C7.56326 10.9101 7.01213 11.8651 7.45303 12.6287L9.00014 15.3081C9.08881 15.462 9.20713 15.5885 9.34655 15.6834C9.18147 16.204 8.69385 16.5823 8.1194 16.5823H7.31979C6.61006 16.5823 6.03264 16.0049 6.03264 15.2952V14.5794C6.03264 14.2559 5.77033 13.9935 5.44674 13.9935C5.12318 13.9935 4.86084 14.2558 4.86084 14.5794V15.2952C4.86084 16.651 5.96393 17.7541 7.31975 17.7541H8.11936C8.86904 17.7541 9.541 17.4164 9.99237 16.8857C10.4437 17.4165 11.1157 17.7541 11.8654 17.7541H12.665C14.0208 17.7541 15.1239 16.651 15.1239 15.2952V14.5794C15.1239 14.2559 14.8616 13.9936 14.538 13.9936ZM9.99225 14.6832L8.49084 12.0819H11.494L9.99225 14.6832Z"
        fill="#305F82" />
    <path
        d="M7.81002 8.89316C8.1336 8.89316 8.39592 8.63084 8.39592 8.30726C8.39592 7.98368 8.1336 7.72136 7.81002 7.72136C7.48644 7.72136 7.22412 7.98368 7.22412 8.30726C7.22412 8.63084 7.48644 8.89316 7.81002 8.89316Z"
        fill="#305F82" />
    <path
        d="M12.1908 8.89316C12.5143 8.89316 12.7767 8.63084 12.7767 8.30726C12.7767 7.98368 12.5143 7.72136 12.1908 7.72136C11.8672 7.72136 11.6049 7.98368 11.6049 8.30726C11.6049 8.63084 11.8672 8.89316 12.1908 8.89316Z"
        fill="#305F82" />
</svg>