<svg width="26" height="26" viewBox="0 0 26 26" fill="none" xmlns="http://www.w3.org/2000/svg">
    <path fill-rule="evenodd" clip-rule="evenodd"
        d="M0.25235 12.6887C0.25235 18.8774 4.77217 24.023 10.6827 25.066L10.7525 25.0102C10.7292 25.0057 10.706 25.0011 10.6827 24.9965V16.1655H7.5536V12.6887H10.6827V9.90724C10.6827 6.77814 12.6992 5.03974 15.5502 5.03974C16.4542 5.03974 17.4277 5.17881 18.3316 5.31789V8.51653H16.7323C15.2025 8.51653 14.8549 9.28142 14.8549 10.2549V12.6887H18.1926L17.6363 16.1655H14.8549V24.9965C14.8316 25.0011 14.8083 25.0057 14.7851 25.0102L14.8549 25.066C20.7654 24.023 25.2852 18.8774 25.2852 12.6887C25.2852 5.80464 19.6528 0.172241 12.7688 0.172241C5.88474 0.172241 0.25235 5.80464 0.25235 12.6887Z"
        fill="#2F5F82" />
</svg>