<svg width="20" height="21" viewBox="0 0 20 21" fill="none" xmlns="http://www.w3.org/2000/svg">
<path d="M19.0427 17.3712H18.4079C18.908 16.7961 19.2155 16.0533 19.2261 15.2428C19.2491 13.4708 17.892 11.9923 16.1305 11.8623L15.0795 11.6805V4.02193H15.2971C16.2324 4.02193 17.1142 3.52489 17.5984 2.72478L18.1566 1.80267C18.3241 1.52583 18.2355 1.16556 17.9587 0.99798C17.6819 0.830402 17.3216 0.918995 17.1541 1.19583L16.5959 2.11794C16.3226 2.5695 15.825 2.85001 15.2971 2.85001H12.9702C12.4716 2.85001 12.0122 3.12122 11.7714 3.55775L11.1792 4.63091C11.0229 4.91423 11.1259 5.27068 11.4092 5.427C11.6924 5.58333 12.0489 5.48044 12.2053 5.19704L12.7974 4.12384C12.8321 4.06095 12.8983 4.02189 12.9701 4.02189H13.9076V11.4778C5.15293 9.96361 5.69137 10.0504 5.43691 10.0275L4.70215 7.21747H5.76297C6.08656 7.21747 6.34891 6.95513 6.34891 6.63154C6.34891 6.30794 6.08656 6.0456 5.76297 6.0456H2.45355C2.12996 6.0456 1.86762 6.30794 1.86762 6.63154C1.86762 6.95513 2.12996 7.21747 2.45355 7.21747H3.4909L4.24133 10.0875C2.26949 10.4662 0.758203 12.189 0.77375 14.2824C0.782734 15.4968 1.30723 16.5942 2.13984 17.3711H0.957266C0.429414 17.3712 0 17.8006 0 18.3285V19.9296C0 20.4574 0.429414 20.8868 0.957266 20.8868H19.0427C19.5706 20.8868 20 20.4574 20 19.9296V18.3285C20 17.8006 19.5706 17.3712 19.0427 17.3712ZM1.94562 14.2738C1.93137 12.3518 3.69395 10.8959 5.59727 11.2297C5.59773 11.2298 5.59816 11.2299 5.59867 11.23C16.5687 13.1273 15.9738 13.0263 16.0226 13.0294C17.177 13.1034 18.0693 14.069 18.0543 15.2275C18.0391 16.3979 17.0656 17.3518 15.8766 17.3711H5.07754C3.35977 17.3517 1.9582 15.9701 1.94562 14.2738ZM18.8281 19.715H1.17188V18.5431H18.8281V19.715Z" fill="#305F82"/>
<path d="M5.42773 16.0459C6.19141 16.0459 6.84336 15.5561 7.08477 14.874H9.76523C10.0887 14.874 10.3512 14.6119 10.3512 14.2881C10.3512 13.9647 10.0887 13.7022 9.76523 13.7022H7.08477C6.84336 13.0201 6.19141 12.5303 5.42773 12.5303C4.45859 12.5303 3.66992 13.319 3.66992 14.2881C3.66992 15.2576 4.45859 16.0459 5.42773 16.0459ZM5.42773 13.7022C6.0609 13.7022 6.24242 14.5756 5.6582 14.8268C5.27398 14.9924 4.8418 14.7083 4.8418 14.2881C4.8418 13.965 5.10469 13.7022 5.42773 13.7022Z" fill="#305F82"/>
</svg>
