<svg width="19" height="18" viewBox="0 0 19 18" fill="none" xmlns="http://www.w3.org/2000/svg">
    <path fill-rule="evenodd" clip-rule="evenodd"
        d="M0.64267 5.98619C0.64267 3.2548 2.56933 0.582031 5.63978 0.582031C7.06298 0.582031 8.07901 0.982143 8.85868 1.58629C9.22859 1.87292 9.53771 2.20269 9.80185 2.52453C10.0631 2.20337 10.3691 1.87368 10.7357 1.58784C11.514 0.980935 12.5316 0.582031 13.9683 0.582031C17.0739 0.582031 18.9654 3.25927 18.9654 5.98619C18.9654 8.76406 17.5711 11.1404 15.8243 12.9947C14.0748 14.8519 11.9053 16.2595 10.1765 17.1224C9.94203 17.2395 9.66605 17.2395 9.43158 17.1224C7.70274 16.2595 5.53326 14.8519 3.78378 12.9947C2.03698 11.1404 0.64267 8.76406 0.64267 5.98619ZM5.63978 2.24485C3.71312 2.24485 2.30837 3.93249 2.30837 5.98619C2.30837 8.18485 3.41261 10.1734 4.99723 11.8556C6.45872 13.407 8.27261 14.6351 9.80404 15.4438C11.3355 14.6351 13.1494 13.407 14.6109 11.8556C16.1955 10.1734 17.2997 8.18485 17.2997 5.98619C17.2997 3.92802 15.9224 2.24485 13.9683 2.24485C12.8751 2.24485 12.2251 2.5364 11.761 2.89827C11.3309 3.23368 11.0313 3.64246 10.6743 4.12968C10.6093 4.21839 10.5424 4.30971 10.4725 4.40365C10.3153 4.61469 10.0674 4.73907 9.80404 4.73907C9.54064 4.73907 9.29276 4.61469 9.13562 4.40365C9.07582 4.32334 9.01801 4.2448 8.96152 4.16805C8.59351 3.66805 8.2813 3.24386 7.83731 2.89983C7.36674 2.53519 6.71513 2.24485 5.63978 2.24485Z"
        fill="#2F5F82" />
</svg>