<svg width="20" height="16" viewBox="0 0 20 16" fill="none" xmlns="http://www.w3.org/2000/svg">
    <path fill-rule="evenodd" clip-rule="evenodd"
        d="M19.3209 2.90768V12.8846C19.3209 14.2583 18.1984 15.3788 16.8223 15.3788H3.49669C2.12059 15.3788 0.998138 14.2583 0.998138 12.8846V2.90768C0.998138 1.53016 2.11678 0.413452 3.49669 0.413452H16.8223C18.2022 0.413452 19.3209 1.53016 19.3209 2.90768ZM2.75261 2.53683C2.89034 2.26494 3.17358 2.07627 3.49669 2.07627H16.8223C17.1454 2.07627 17.4287 2.26494 17.5664 2.53683L10.1595 7.71268L2.75261 2.53683ZM2.66384 4.50453L9.20429 9.07491C9.77783 9.47569 10.5412 9.47569 11.1147 9.07491L17.6552 4.50453V12.8846C17.6552 13.34 17.2785 13.716 16.8223 13.716H3.49669C3.04053 13.716 2.66384 13.34 2.66384 12.8846V4.50453Z"
        fill="#2F5F82" />
</svg>