<svg width="19" height="29" viewBox="0 0 19 29" fill="none" xmlns="http://www.w3.org/2000/svg">
<path d="M9.2831 3.55054H7.50358C7.04323 3.55054 6.6626 3.9161 6.6626 4.37263V10.6201C6.6626 11.0742 7.03913 11.4422 7.50358 11.4422C7.96803 11.4422 8.34457 11.0742 8.34457 10.6201V8.72405C8.69195 8.72235 9.06551 8.72082 9.2831 8.72082C10.7608 8.72082 11.963 7.56111 11.963 6.1357C11.9629 4.71024 10.7608 3.55054 9.2831 3.55054ZM9.2831 7.07662C9.06618 7.07662 8.69223 7.0781 8.34703 7.0798C8.34215 6.10468 8.35045 6.42969 8.34703 5.19473H9.2831C9.82402 5.19473 10.281 5.62562 10.281 6.1357C10.281 6.64573 9.82402 7.07662 9.2831 7.07662Z" fill="#305F82"/>
<path d="M15.3694 22.5402H15.1547C14.9518 20.9781 13.6599 19.7665 12.0615 19.6291V14.9235H15.2996C16.1886 14.9235 16.9119 14.2165 16.9119 13.3474V1.64565C16.9119 0.776584 16.1886 0.0695801 15.2996 0.0695801H3.32905C2.44002 0.0695801 1.71677 0.776584 1.71677 1.64565V13.3474C1.71677 14.2165 2.44002 14.9235 3.32905 14.9235H6.56712V19.6296C4.97278 19.7665 3.67733 20.9737 3.47392 22.5404H3.25925C1.68263 22.5404 0.399902 23.7942 0.399902 25.3355C0.399902 26.8767 1.68257 28.1306 3.25925 28.1306H15.3694C16.946 28.1306 18.2288 26.8768 18.2288 25.3355C18.2288 23.7942 16.946 22.5402 15.3694 22.5402ZM3.39874 1.71377H15.23V13.2793H3.39874V1.71377ZM9.31444 20.6279C9.02621 20.339 8.66689 20.0857 8.25621 19.9066C8.25379 19.9056 8.2515 19.9044 8.24908 19.9033V14.9244H10.3796V19.9033C9.99553 20.0698 9.62471 20.3171 9.31444 20.6279ZM15.3694 26.4863H3.25925C2.61001 26.4863 2.08187 25.97 2.08187 25.3354C2.08187 24.7007 2.61001 24.1844 3.25925 24.1844H4.32001C4.83676 24.1844 5.23175 23.7323 5.15056 23.2333C4.95602 22.0372 6.04694 21.0476 7.23245 21.3C7.8314 21.425 8.3232 21.8565 8.51596 22.4259C8.76954 23.1749 9.85884 23.176 10.1128 22.4259C10.3054 21.8569 10.7968 21.4251 11.3997 21.2992C12.5665 21.0505 13.6747 22.0246 13.4782 23.2332C13.3969 23.7321 13.7917 24.1844 14.3087 24.1844H15.3694C16.0187 24.1844 16.5468 24.7007 16.5468 25.3354C16.5468 25.97 16.0186 26.4863 15.3694 26.4863Z" fill="#305F82"/>
</svg>
