<svg width="21" height="21" viewBox="0 0 21 21" fill="none" xmlns="http://www.w3.org/2000/svg">
<g clip-path="url(#clip0_10_1411)">
<path d="M20.9984 6.32368C20.9984 5.76906 20.5472 5.31788 19.9926 5.31788H14.4815V2.15154C14.4815 1.07561 13.6062 0.200287 12.5303 0.200287C11.4544 0.200287 10.579 1.07561 10.579 2.15154V2.81535C10.579 3.14865 10.8493 3.41881 11.1825 3.41881C11.5158 3.41881 11.786 3.14861 11.786 2.81535V2.15154C11.786 1.74111 12.1198 1.40726 12.5303 1.40726C12.9407 1.40726 13.2745 1.74111 13.2745 2.15154V5.31788H8.1233V2.1523C8.1233 1.07637 7.24798 0.201051 6.17205 0.201051C5.09613 0.201051 4.22081 1.07637 4.22081 2.1523V2.81612C4.22081 3.14941 4.49101 3.41958 4.82427 3.41958C5.15752 3.41958 5.42773 3.14937 5.42773 2.81612V2.1523C5.42773 1.74188 5.76163 1.40802 6.17201 1.40802C6.5824 1.40802 6.9163 1.74188 6.9163 2.1523V5.31784H1.40546C0.850838 5.31784 0.399658 5.76902 0.399658 6.32364L0.400262 19.7941C0.400262 20.3487 0.851441 20.7999 1.40606 20.7999H19.9932C20.5478 20.7999 20.999 20.3487 20.999 19.7941L20.9984 6.32368ZM19.7914 6.52485L19.7917 11.3388C18.6417 11.3932 18.0045 11.7643 17.4327 12.0977C16.8789 12.4206 16.4006 12.6995 15.3907 12.6995C15.0286 12.6995 14.735 12.6635 14.4815 12.6025V6.52485H19.7914ZM8.1233 9.7754H13.2746V12.0545C12.6761 11.7067 11.9816 11.3316 10.6989 11.3316C9.41621 11.3316 8.7217 11.7067 8.1233 12.0545V9.7754ZM13.2746 6.52485V8.56848H8.1233V6.52485H13.2746ZM6.91634 6.52485V12.6026C6.6629 12.6635 6.36932 12.6995 6.00714 12.6995C4.99727 12.6995 4.51902 12.4206 3.96524 12.0977C3.39356 11.7644 2.75618 11.3932 1.60683 11.3387L1.60663 6.52485H6.91634ZM1.60723 19.5929L1.60691 12.547C2.42264 12.5957 2.8624 12.8517 3.35731 13.1403C3.97313 13.4994 4.67114 13.9064 6.00718 13.9064C7.34321 13.9064 8.04119 13.4994 8.657 13.1403C9.21078 12.8174 9.68904 12.5385 10.6989 12.5385C11.7088 12.5385 12.187 12.8174 12.7408 13.1403C13.3567 13.4994 14.0547 13.9064 15.3907 13.9064C16.7268 13.9064 17.4248 13.4994 18.0406 13.1403C18.5357 12.8517 18.9754 12.5957 19.7917 12.547L19.792 19.5929H1.60723Z" fill="#305F82"/>
</g>
<defs>
<clipPath id="clip0_10_1411">
<rect width="20.5996" height="20.5996" fill="white" transform="translate(0.399902 0.200287)"/>
</clipPath>
</defs>
</svg>
