<svg width="62" height="13" viewBox="0 0 62 13" fill="none" xmlns="http://www.w3.org/2000/svg">
    <path
        d="M6.51476 1.69002L7.57666 4.60968L10.6957 4.71177C11.024 4.72198 11.1625 5.13543 10.9009 5.3396L8.43849 7.2435L9.30546 10.2244C9.3978 10.5409 9.04383 10.7961 8.77194 10.6123L6.19157 8.87178L3.6112 10.6123C3.33931 10.7961 2.98534 10.5409 3.07768 10.2244L3.94465 7.2435L1.472 5.3396C1.21038 5.14053 1.34889 4.72198 1.6772 4.71177L4.79622 4.60968L5.85812 1.69002C5.96585 1.38376 6.4019 1.38376 6.51476 1.69002Z"
        fill="#2F5F82" />
    <path
        d="M31.1388 1.69014L32.2007 4.6098L35.3197 4.71189C35.648 4.7221 35.7865 5.13555 35.5249 5.33972L33.0625 7.24363L33.9295 10.2245C34.0218 10.541 33.6679 10.7962 33.396 10.6125L30.8156 8.8719L28.2352 10.6125C27.9633 10.7962 27.6094 10.541 27.7017 10.2245L28.5687 7.24363L26.096 5.33972C25.8344 5.14065 25.9729 4.7221 26.3012 4.71189L29.4202 4.6098L30.4821 1.69014C30.5899 1.38388 31.0259 1.38388 31.1388 1.69014Z"
        fill="#2F5F82" />
    <path
        d="M18.8264 1.69014L19.8883 4.6098L23.0073 4.71189C23.3356 4.7221 23.4741 5.13555 23.2125 5.33972L20.7501 7.24363L21.6171 10.2245C21.7094 10.541 21.3555 10.7962 21.0836 10.6125L18.5032 8.8719L15.9228 10.6125C15.651 10.7962 15.297 10.541 15.3893 10.2245L16.2563 7.24363L13.7837 5.33972C13.522 5.14065 13.6605 4.7221 13.9888 4.71189L17.1079 4.6098L18.1698 1.69014C18.2775 1.38388 18.7135 1.38388 18.8264 1.69014Z"
        fill="#2F5F82" />
    <path
        d="M43.4512 1.69014L44.5131 4.6098L47.6321 4.71189C47.9605 4.7221 48.099 5.13555 47.8373 5.33972L45.375 7.24363L46.2419 10.2245C46.3343 10.541 45.9803 10.7962 45.7084 10.6125L43.128 8.8719L40.5477 10.6125C40.2758 10.7962 39.9218 10.541 40.0141 10.2245L40.8811 7.24363L38.4085 5.33972C38.1468 5.14065 38.2853 4.7221 38.6137 4.71189L41.7327 4.6098L42.7946 1.69014C42.9023 1.38388 43.3384 1.38388 43.4512 1.69014Z"
        fill="#2F5F82" />
    <path
        d="M55.763 1.69014L56.825 4.6098L59.944 4.71189C60.2723 4.7221 60.4108 5.13555 60.1492 5.33972L57.6868 7.24363L58.5537 10.2245C58.6461 10.541 58.2921 10.7962 58.0202 10.6125L55.4399 8.8719L52.8595 10.6125C52.5876 10.7962 52.2336 10.541 52.326 10.2245L53.1929 7.24363L50.7203 5.33972C50.4587 5.14065 50.5972 4.7221 50.9255 4.71189L54.0445 4.6098L55.1064 1.69014C55.2141 1.38388 55.6502 1.38388 55.763 1.69014Z"
        fill="#2F5F82" fill-opacity="0.17" />
</svg>