<svg width="16" height="15" viewBox="0 0 16 15" fill="none" xmlns="http://www.w3.org/2000/svg">
    <path fill-rule="evenodd" clip-rule="evenodd"
        d="M0.843124 6.25125C0.843124 2.80545 3.63649 0.012085 7.08229 0.012085C10.5281 0.012085 13.3215 2.80545 13.3215 6.25125C13.3215 7.7244 12.8109 9.07829 11.9571 10.1457L15.1981 13.3867C15.4689 13.6574 15.4689 14.0964 15.1981 14.3671C14.9274 14.6378 14.4885 14.6378 14.2177 14.3671L10.9767 11.126C9.90933 11.9799 8.55543 12.4904 7.08229 12.4904C3.63649 12.4904 0.843124 9.69704 0.843124 6.25125ZM7.08229 1.39857C4.40223 1.39857 2.22961 3.57119 2.22961 6.25125C2.22961 8.93131 4.40223 11.1039 7.08229 11.1039C9.76235 11.1039 11.935 8.93131 11.935 6.25125C11.935 3.57119 9.76235 1.39857 7.08229 1.39857Z"
        fill="#2F5F82" />
</svg>