<svg width="35" height="34" viewBox="0 0 35 34" fill="none" xmlns="http://www.w3.org/2000/svg">
    <path fill-rule="evenodd" clip-rule="evenodd"
        d="M26.6615 12.6222C26.6696 12.8307 26.6723 13.039 26.6723 13.2475C26.6723 19.568 22.2262 26.8645 14.0958 26.8645C11.5983 26.8645 9.27592 26.0685 7.31923 24.7135C7.66511 24.7514 8.01638 24.7799 8.37304 24.7799C10.4438 24.7799 12.3511 24.0122 13.864 22.7234C11.9298 22.695 10.2965 21.3021 9.73321 19.4069C10.0036 19.4637 10.2821 19.4922 10.5669 19.4922C10.9685 19.4922 11.3584 19.4354 11.7321 19.3217C9.70803 18.8858 8.18348 16.9528 8.18348 14.6312C8.18348 14.6028 8.18348 14.5932 8.18348 14.5743C8.78001 14.9249 9.46278 15.1427 10.1878 15.1712C9.0001 14.3088 8.2194 12.8401 8.2194 11.1818C8.2194 10.31 8.43681 9.4856 8.81952 8.77491C10.999 11.6745 14.2575 13.5792 17.931 13.7782C17.8555 13.4276 17.8169 13.0581 17.8169 12.6886C17.8169 10.0448 19.796 7.9032 22.2379 7.9032C23.5091 7.9032 24.6572 8.48131 25.4631 9.40995C26.472 9.20148 27.4171 8.80352 28.2723 8.25392C27.9408 9.37208 27.241 10.31 26.3264 10.8975C27.2212 10.7838 28.0747 10.5281 28.8662 10.1491C28.2724 11.1062 27.5249 11.9494 26.6615 12.6222Z"
        fill="#2F5F82" />
</svg>