<svg width="21" height="22" viewBox="0 0 21 22" fill="none" xmlns="http://www.w3.org/2000/svg">
<path d="M19.7921 3.78221H19.6223L20.5406 2.02745C20.9294 1.28507 20.3904 0.397125 19.5538 0.397125H4.5924C3.97813 0.397125 3.4784 0.896698 3.4784 1.51073V5.80336C3.4784 6.4174 3.97813 6.91697 4.5924 6.91697H4.92725V10.1729C4.92725 10.5063 5.19754 10.7766 5.53094 10.7766H6.13704V12.1171C6.13704 12.7451 6.60048 13.2667 7.20316 13.3579V15.9119H4.20298V15.0467C4.20298 14.7133 3.93269 14.443 3.59929 14.443H1.00359C0.670194 14.443 0.399902 14.7133 0.399902 15.0467V20.3994C0.399902 20.7328 0.670194 21.0031 1.00359 21.0031H3.59933C3.93273 21.0031 4.20302 20.7328 4.20302 20.3994V19.5341H9.02715C10.0187 19.5341 10.8253 18.7274 10.8253 17.7359V13.3579C11.4284 13.267 11.8923 12.7452 11.8923 12.1172V10.7766H16.8944C17.2278 10.7766 17.4981 10.5063 17.4981 10.1729V8.34369H19.7921C20.4579 8.34369 20.9995 7.80206 20.9995 7.13631V4.98959C20.9995 4.32384 20.4578 3.78221 19.7921 3.78221ZM2.99561 19.7957H1.60728V15.6503H2.99565C2.99561 15.6503 2.99561 19.7059 2.99561 19.7957ZM9.61796 17.7359C9.61796 18.0617 9.35294 18.3267 9.02715 18.3267H4.20298V17.1193H7.80685C8.14025 17.1193 8.41054 16.849 8.41054 16.5156V13.372H9.61792L9.61796 17.7359ZM10.6848 12.1171C10.6848 12.1433 10.6635 12.1646 10.6373 12.1646C10.2576 12.1646 7.78962 12.1646 7.39151 12.1646C7.36555 12.1646 7.34442 12.1433 7.34442 12.1171V10.7766H10.6848V12.1171ZM16.2907 9.56918C15.2959 9.56918 6.18844 9.56918 6.13463 9.56918V6.91697H12.9205C13.1512 6.91697 13.3618 6.78545 13.463 6.57814L14.2385 4.98959H16.2907V9.56918ZM13.8615 3.78221C13.6308 3.78221 13.4202 3.91374 13.319 4.12104L12.5435 5.70959H5.53094H4.68577V1.6045H19.3992L18.527 3.27113C18.3622 3.58638 18.0386 3.78221 17.6824 3.78221C17.2983 3.78221 14.2477 3.78221 13.8615 3.78221ZM19.7921 7.13631H17.4981V4.98959C17.4981 4.98959 17.6238 4.98939 19.7921 4.98883C19.7921 4.98883 19.7921 4.98907 19.7921 4.98959V7.13631Z" fill="#305F82"/>
</svg>
