<svg width="21" height="21" viewBox="0 0 21 21" fill="none" xmlns="http://www.w3.org/2000/svg">
<path d="M15.6624 4.72161C16.0883 4.72161 16.4336 4.37635 16.4336 3.95044C16.4336 3.52454 16.0883 3.17928 15.6624 3.17928C15.2365 3.17928 14.8912 3.52454 14.8912 3.95044C14.8912 4.37635 15.2365 4.72161 15.6624 4.72161Z" fill="#305F82"/>
<path d="M12.4003 4.72161C12.8262 4.72161 13.1715 4.37635 13.1715 3.95044C13.1715 3.52454 12.8262 3.17928 12.4003 3.17928C11.9744 3.17928 11.6292 3.52454 11.6292 3.95044C11.6292 4.37635 11.9744 4.72161 12.4003 4.72161Z" fill="#305F82"/>
<path d="M7.72481 3.17928H3.99749C3.5716 3.17928 3.22632 3.52455 3.22632 3.95044C3.22632 4.37634 3.5716 4.72161 3.99749 4.72161H7.72481C8.1507 4.72161 8.49597 4.37634 8.49597 3.95044C8.49597 3.52455 8.1507 3.17928 7.72481 3.17928Z" fill="#305F82"/>
<path d="M20.061 12.2738C20.061 11.5177 19.4458 10.9025 18.6897 10.9025H15.3788L15.379 1.44088C15.379 0.684711 14.7638 0.069519 14.0077 0.069519H1.37156C0.615388 0.069519 0.000195909 0.684711 0.000195909 1.44088C0.000195909 1.55251 0 18.2058 0 18.7592C0 19.5154 0.615192 20.1306 1.37136 20.1306H10.8337H18.6897C19.4458 20.1306 20.061 19.5154 20.061 18.7592V17.6425C20.061 17.3513 19.9695 17.0812 19.8141 16.8589C19.9695 16.6366 20.061 16.3664 20.061 16.0752V14.9586C20.061 14.6672 19.9694 14.3969 19.8138 14.1745C19.9694 13.9521 20.061 13.6819 20.061 13.3905V12.2738ZM18.8856 12.2738V13.3905C18.8856 13.4985 18.7977 13.5864 18.6897 13.5864C18.3866 13.5864 11.1866 13.5864 10.8337 13.5864C10.7257 13.5864 10.6378 13.4985 10.6378 13.3905C10.6378 12.3971 10.6378 14.607 10.6378 12.2738C10.6378 12.1658 10.7257 12.0779 10.8337 12.0779H18.6897C18.7977 12.0779 18.8856 12.1658 18.8856 12.2738ZM18.8856 16.0752C18.8856 16.1833 18.7977 16.2712 18.6897 16.2712H10.8337C10.7232 16.2712 10.6378 16.1807 10.6378 16.0752V14.9586C10.6378 14.8505 10.7257 14.7627 10.8337 14.7627H18.6897C18.7977 14.7627 18.8856 14.8505 18.8856 14.9586V16.0752ZM9.46748 16.1937C8.91521 16.4576 8.30836 16.5956 7.68941 16.5956C6.06983 16.5956 4.62952 15.6551 3.95927 14.2337H5.31088C5.31598 14.2337 5.32099 14.2334 5.32609 14.2333C5.8789 14.9738 6.75199 15.4201 7.68941 15.4201C8.33904 15.4201 8.95882 15.2089 9.46932 14.8206C9.4665 14.8489 9.46238 14.9156 9.46238 14.9586V16.0752C9.46238 16.1139 9.4654 16.1695 9.46748 16.1937ZM3.60648 13.0583C3.55096 12.6691 3.55025 12.2768 3.60648 11.8828H5.31085C5.63492 11.8828 5.89857 12.1465 5.89857 12.4705C5.89857 12.7946 5.63492 13.0583 5.31085 13.0583H3.60648ZM6.49245 11.1631C6.81519 10.8676 7.24004 10.6964 7.68941 10.6964C8.5967 10.6964 9.46238 11.4144 9.46238 12.5299C9.43116 13.476 8.6371 14.2447 7.68941 14.2447C7.23992 14.2447 6.81511 14.0734 6.49253 13.7779C6.84943 13.4551 7.07406 12.9886 7.07406 12.4705C7.07406 11.9525 6.84939 11.4859 6.49245 11.1631ZM10.2622 11.0277C9.75562 10.1282 8.79335 9.52093 7.68941 9.52093C6.75214 9.52093 5.87894 9.96721 5.32585 10.7077C5.27088 10.7072 5.58433 10.7074 3.95923 10.7074C4.62936 9.28611 6.06972 8.34548 7.68945 8.34548C9.37579 8.34548 10.8797 9.38548 11.5056 10.9025H10.8337C10.6298 10.9025 10.4363 10.9475 10.2622 11.0277ZM1.17565 1.44088C1.17565 1.33285 1.26353 1.24497 1.37156 1.24497H14.0077C14.1157 1.24497 14.2036 1.33285 14.2036 1.44088V4.81051H1.17565V1.44088ZM1.37136 18.9551C1.26334 18.9551 1.17545 18.8672 1.17545 18.7592V5.98596H14.2034V10.9025H12.7533C12.0662 8.68797 10.0161 7.17003 7.68941 7.17003C4.7491 7.17003 2.38891 9.55044 2.38891 12.4705C2.38891 15.3895 4.7482 17.771 7.68941 17.771C8.30182 17.771 8.90518 17.6656 9.47465 17.4621C9.46638 17.5247 9.46238 17.591 9.46238 17.6425V18.7592C9.46238 18.823 9.46904 18.9041 9.47633 18.9551H1.37136ZM18.8856 18.7592C18.8856 18.8672 18.7977 18.9551 18.6897 18.9551H10.8337C10.7257 18.9551 10.6378 18.8672 10.6378 18.7592V17.6425C10.6378 17.5345 10.7257 17.4466 10.8337 17.4466H18.6897C18.7977 17.4466 18.8856 17.5345 18.8856 17.6425V18.7592Z" fill="#305F82"/>
</svg>
