<svg width="21" height="19" viewBox="0 0 21 19" fill="none" xmlns="http://www.w3.org/2000/svg">
<path d="M19.1347 9.73794H19.0824V1.39415C19.0824 1.06461 18.8153 0.79744 18.4857 0.79744C18.1562 0.79744 17.889 1.06461 17.889 1.39415V9.73794H2.4786V1.39415C2.4786 1.06461 2.21144 0.79744 1.88189 0.79744C1.55235 0.79744 1.28519 1.06461 1.28519 1.39415V9.73794H1.23296C0.553068 9.73794 0 10.291 0 10.9709V17.3697C0 18.0495 0.553068 18.6026 1.23292 18.6026H19.1347C19.8145 18.6026 20.3676 18.0495 20.3676 17.3697V10.9709C20.3676 10.291 19.8145 9.73794 19.1347 9.73794ZM19.1742 17.3697C19.1742 17.3915 19.1565 17.4092 19.1347 17.4092H1.23292C1.21112 17.4092 1.19341 17.3915 1.19341 17.3697V10.9709C1.19341 10.9491 1.21112 10.9314 1.23292 10.9314H19.1347C19.1565 10.9314 19.1742 10.9491 19.1742 10.9709V17.3697Z" fill="#305F82"/>
<path d="M5.65292 4.60296C6.86129 3.39459 8.47073 2.7291 10.1847 2.7291C11.8987 2.7291 13.5081 3.39459 14.7165 4.60292C14.9495 4.83592 15.3273 4.83592 15.5604 4.60292C15.7934 4.36993 15.7934 3.99209 15.5604 3.75906C14.1266 2.32529 12.2175 1.53569 10.1847 1.53569C8.15192 1.53569 6.24282 2.32533 4.80905 3.75914C4.57602 3.99213 4.57602 4.36997 4.80905 4.603C5.04209 4.836 5.41988 4.83596 5.65292 4.60296Z" fill="#305F82"/>
<path d="M13.7613 6.40234C13.9943 6.16934 13.9943 5.79151 13.7613 5.55847C11.7894 3.58656 8.58086 3.58656 6.60898 5.55847C6.37595 5.79147 6.37595 6.1693 6.60898 6.40234C6.84197 6.63533 7.21981 6.63533 7.45284 6.40234C8.95945 4.89573 11.4108 4.89573 12.9174 6.40234C13.1505 6.63541 13.5282 6.63537 13.7613 6.40234Z" fill="#305F82"/>
<path d="M8.40585 7.35851C8.17282 7.59151 8.17282 7.96934 8.40585 8.20237C8.63885 8.43537 9.01668 8.43537 9.24972 8.20237C9.76408 7.68801 10.6009 7.68801 11.1153 8.20237C11.3483 8.43541 11.7261 8.43537 11.9591 8.20237C12.1922 7.96938 12.1922 7.59155 11.9591 7.35851C10.9795 6.37884 9.38549 6.37884 8.40585 7.35851Z" fill="#305F82"/>
<path d="M4.47847 12.2921H3.83987C3.51033 12.2921 3.24316 12.5593 3.24316 12.8889C3.24316 13.2184 3.51033 13.4856 3.83987 13.4856H4.47847C4.80801 13.4856 5.07517 13.2184 5.07517 12.8889C5.07517 12.5593 4.80801 12.2921 4.47847 12.2921Z" fill="#305F82"/>
<path d="M4.47847 14.8462H3.83987C3.51033 14.8462 3.24316 15.1133 3.24316 15.4429C3.24316 15.7724 3.51033 16.0396 3.83987 16.0396H4.47847C4.80801 16.0396 5.07517 15.7724 5.07517 15.4429C5.07517 15.1133 4.80801 14.8462 4.47847 14.8462Z" fill="#305F82"/>
<path d="M7.67183 12.2921H7.03323C6.70369 12.2921 6.43652 12.5593 6.43652 12.8889C6.43652 13.2184 6.70369 13.4856 7.03323 13.4856H7.67183C8.00137 13.4856 8.26853 13.2184 8.26853 12.8889C8.26853 12.5593 8.00137 12.2921 7.67183 12.2921Z" fill="#305F82"/>
<path d="M7.67183 14.8462H7.03323C6.70369 14.8462 6.43652 15.1133 6.43652 15.4429C6.43652 15.7724 6.70369 16.0396 7.03323 16.0396H7.67183C8.00137 16.0396 8.26853 15.7724 8.26853 15.4429C8.26853 15.1133 8.00137 14.8462 7.67183 14.8462Z" fill="#305F82"/>
<path d="M10.8651 12.2921H10.2265C9.89693 12.2921 9.62976 12.5593 9.62976 12.8889C9.62976 13.2184 9.89693 13.4856 10.2265 13.4856H10.8651C11.1946 13.4856 11.4618 13.2184 11.4618 12.8889C11.4618 12.5593 11.1946 12.2921 10.8651 12.2921Z" fill="#305F82"/>
<path d="M10.8651 14.8462H10.2265C9.89693 14.8462 9.62976 15.1133 9.62976 15.4429C9.62976 15.7724 9.89693 16.0396 10.2265 16.0396H10.8651C11.1946 16.0396 11.4618 15.7724 11.4618 15.4429C11.4618 15.1133 11.1946 14.8462 10.8651 14.8462Z" fill="#305F82"/>
<path d="M15.3348 12.4603C14.3477 12.4603 13.5447 13.2633 13.5447 14.2504C13.5447 15.2375 14.3477 16.0405 15.3348 16.0405C16.3219 16.0405 17.1249 15.2375 17.1249 14.2504C17.1249 13.2633 16.3219 12.4603 15.3348 12.4603ZM15.3348 14.8471C15.0058 14.8471 14.7381 14.5794 14.7381 14.2504C14.7381 13.9214 15.0058 13.6537 15.3348 13.6537C15.6638 13.6537 15.9315 13.9214 15.9315 14.2504C15.9315 14.5794 15.6638 14.8471 15.3348 14.8471Z" fill="#305F82"/>
</svg>
